<?xml version="1.0" encoding="UTF-8"?>
<!-- Created with Inkscape (http://www.inkscape.org/) -->
<svg width="32" height="32" version="1.1" viewBox="0 0 32 32" xml:space="preserve" xmlns="http://www.w3.org/2000/svg"><circle cx="16" cy="16" r="15.5" fill="none" stroke="#f00" stroke-width=".973" style="paint-order:stroke fill markers"/><text x="8.1101856" y="25.56427" fill="#ff00ff" font-size="3.63px" stroke-width=".302" style="paint-order:stroke fill markers" xml:space="preserve"><tspan x="8.1101856" y="25.56427" font-family="'Segoe UI'" font-weight="bold" stroke-width=".302"><tspan fill="#ff0000">H</tspan><tspan fill="#00ffff">O</tspan><tspan fill="#00ff00">A</tspan> S<tspan fill="#ffff00">E</tspan><tspan fill="#0066ff">N</tspan></tspan></text><g fill="#f0f" stroke-width=".945"><path d="m5.33 15.3-1.28 2.54" style="paint-order:stroke fill markers"/><path d="m-1.97 15.3 0.365 1.59" style="paint-order:stroke fill markers"/><path d="m1.88 15c2.26-0.967 6.55-1.05 8.29 1.51 0.221 0.327-1.63-1.42-4.84-1.28 0 0 2.94 1.59 4.31 2.72 1.33 1.1 4.11 1.95 5.38 2.04 1.28 0.0912-4.19 0.215-7.81-2.39-2.99-2.15-5.33-2.61-5.33-2.61z" style="paint-order:stroke fill markers"/><path d="m30.1 15c-2.26-0.967-6.55-1.05-8.29 1.51-0.221 0.327 1.63-1.42 4.84-1.28 0 0-2.94 1.59-4.31 2.72-1.33 1.1-4.11 1.95-5.38 2.04-1.28 0.0912 4.19 0.215 7.81-2.39 2.99-2.15 5.33-2.61 5.33-2.61z" style="paint-order:stroke fill markers"/><path d="m9.46 11.2c3.98-0.584 4.4 1.29 4.6 1.68 0.206 0.394-0.289-0.497-2.48-0.84-0.437-0.0682 0.644 0.529 1.01 2.79 0.267 1.66 1.86 3.13 2.53 3.56 0.7 0.456-2.53-0.29-3.54-2.92-0.675-1.76-0.932-3.93-2.12-4.28z" style="paint-order:stroke fill markers"/><path d="m23.1 11.2c-3.98-0.584-4.4 1.29-4.6 1.68-0.206 0.394 0.289-0.497 2.48-0.84 0.437-0.0682-0.644 0.529-1.01 2.79-0.267 1.66-1.86 3.13-2.53 3.56-0.7 0.456 2.53-0.29 3.54-2.92 0.675-1.76 0.932-3.93 2.12-4.28z" style="paint-order:stroke fill markers"/><path d="m15 8.87c1.04 0.712 1.1 1.31 1.1 1.31s-1.13 2-0.456 5.27c0.0891 0.431-0.485-0.596-0.791-2.25-0.292-1.58-0.229-2.84 0.152-4.34z" style="paint-order:stroke fill markers"/><path d="m15.2 7.82s0.865-2.36 1.17-2.43c0.31-0.0645 1.17 2.13 1.36 3.1 0.181 0.968 0.374 3.42 0.0645 4.44-0.148 0.488-0.315 1.15-0.552 1.89-0.27 0.839-0.686 1.61-0.945 1.9-0.206 0.232 0.71-2.06 0.787-3.45 0.0738-1.32 0.168-2.45-0.4-3.67-0.568-1.21-1.02-1.38-1.48-1.79z" style="paint-order:stroke fill markers"/></g></svg>